<?xml version="1.0" encoding="utf-8"?>
<!-- Generator: Adobe Illustrator 19.2.1, SVG Export Plug-In . SVG Version: 6.00 Build 0)  -->
<svg version="1.1" id="Слой_1" xmlns="http://www.w3.org/2000/svg" xmlns:xlink="http://www.w3.org/1999/xlink" x="0px" y="0px"
	 viewBox="0 0 201.2 151.5" style="enable-background:new 0 0 201.2 151.5;" xml:space="preserve">
<style type="text/css">
	.st0{fill:#FCEE21;}
</style>
<g>
	<path class="st0" d="M779.4,36.5c-0.3,0-0.8,0-1.1-0.3c-1.7-0.6-2.8-2-3.1-3.6l-6.4-72l-9.2,5c-1.4,0.8-3.1,0.6-4.5-0.3l-64.4-45.2
		c-1.4-1.1-2-2.8-1.7-4.5c0.3-1.7,1.7-3.1,3.6-3.1l192.7-27.6c1.7-0.3,3.3,0.6,4.2,2s0.8,3.3-0.3,4.7L782.8,34.8
		C782.2,35.9,780.8,36.5,779.4,36.5z M776.6-45.2l5.9,66.4l88.1-118.5L776.6-45.2z M704.4-80.6l52.2,36.8l107.7-59.7L704.4-80.6z"/>
</g>
<g>
	<path class="st0" d="M90.4,151.5c-0.3,0-0.8,0-1.1-0.3c-1.7-0.6-2.8-2-3.1-3.6l-6.4-72l-9.2,5c-1.4,0.8-3.1,0.6-4.5-0.3L1.7,35.2
		c-1.4-1.1-2-2.8-1.7-4.5s1.7-3.1,3.6-3.1L196.4,0.1c1.7-0.3,3.3,0.6,4.2,2s0.8,3.3-0.3,4.7L93.8,149.8
		C93.2,150.9,91.8,151.5,90.4,151.5z M87.6,69.8l5.9,66.4l88.1-118.5L87.6,69.8z M15.4,34.4l52.2,36.8l107.7-59.7L15.4,34.4z"/>
</g>
</svg>
